{"title":"La Peste (2018) S01 E06 (Finale) - 720p x264 - SPA (ENG SUBS) [B","magnet":"magnet:?xt=urn:btih:b913b36aa844a947214f94feb7801a8aaffca1da&dn=La+Peste+%282018%29+S01+E06+%28Finale%29+-+720p+x264+-+SPA+%28ENG+SUBS%29+%5BB&tr=udp%3A%2F%2Ftracker.leechers-paradise.org%3A6969&tr=udp%3A%2F%2Fzer0day.ch%3A1337&tr=udp%3A%2F%2Fopen.demonii.com%3A1337&tr=udp%3A%2F%2Ftracker.coppersurfer.tk%3A6969&tr=udp%3A%2F%2Fexodus.desync.com%3A6969","uploader":"BRSHNKV","categoryP":"video","categoryS":"hd___tv_shows","size":"638013761","seeders":"6","leechers":"9","description":" <a href=\"http://www.imdb.com/title/tt5868826/?ref_=nv_sr_1\" rel=\"nofollow\" target=\"_NEW\">http://www.imdb.com/title/tt5868826/?ref_=nv_sr_1</a>\r\n\r\n\r\nTech:\r\n\r\nFormat                                   : MPEG-4\r\nFormat profile                           : Base Media / Version 2\r\nCodec ID                                 : mp42\r\nFile size                                : 608 MiB\r\nDuration                                 : 48mn 0s\r\nOverall bit rate mode                    : Variable\r\nOverall bit rate                         : 1 772 Kbps\r\nMovie name                               : La Peste S01 E06 - 720p x264 [BRSHNKV]\r\nEncoded date                             : UTC 2018-04-04 18:10:06\r\nTagged date                              : UTC 2018-04-04 18:10:06\r\nWriting application                      : HandBrake 1.0.2 2017012200\r\n\r\nVideo\r\nID                                       : 1\r\nFormat                                   : AVC\r\nFormat/Info                              : Advanced Video Codec\r\nFormat profile                           : <a href=\"/cdn-cgi/l/email-protection\" class=\"__cf_email__\" data-cfemail=\"7e331f17103e324a\">[email&#xA0;protected]</a>\r\nFormat settings, CABAC                   : Yes\r\nFormat settings, ReFrames                : 8 frames\r\nCodec ID                                 : avc1\r\nCodec ID/Info                            : Advanced Video Coding\r\nDuration                                 : 48mn 0s\r\nBit rate                                 : 1 600 Kbps\r\nWidth                                    : 1 280 pixels\r\nHeight                                   : 720 pixels\r\nDisplay aspect ratio                     : 16:9\r\nFrame rate mode                          : Constant\r\nFrame rate                               : 25.000 fps\r\nColor space                              : YUV\r\nChroma subsampling                       : 4:2:0\r\nBit depth                                : 8 bits\r\nScan type                                : Progressive\r\nBits/(Pixel*Frame)                       : 0.069\r\nStream size                              : 550 MiB (90%)\r\nWriting library                          : x264 core 148 r2708 86b7198\r\nEncoded date                             : UTC 2018-04-04 18:10:06\r\nTagged date                              : UTC 2018-04-04 18:10:06\r\nColor range                              : Limited\r\nColor primaries                          : BT.709\r\nTransfer characteristics                 : BT.709\r\nMatrix coefficients                      : BT.709\r\n\r\nAudio\r\nID                                       : 2\r\nFormat                                   : AAC\r\nFormat/Info                              : Advanced Audio Codec\r\nFormat profile                           : LC\r\nCodec ID                                 : 40\r\nDuration                                 : 48mn 0s\r\nBit rate mode                            : Variable\r\nBit rate                                 : 165 Kbps\r\nChannel(s)                               : 2 channels\r\nChannel positions                        : Front: L R\r\nSampling rate                            : 44.1 KHz\r\nCompression mode                         : Lossy\r\nStream size                              : 56.8 MiB (9%)\r\nTitle                                    : Stereo / Stereo\r\nLanguage                                 : Spanish\r\nEncoded date                             : UTC 2018-04-04 18:10:06\r\nTagged date                              : UTC 2018-04-04 18:10:06","last_updated":"2018-04-07T13:40:32.441Z","parsed":{"xt":"urn:btih:b913b36aa844a947214f94feb7801a8aaffca1da","dn":"La Peste (2018) S01 E06 (Finale) - 720p x264 - SPA (ENG SUBS) [B","tr":["udp://exodus.desync.com:6969","udp://open.demonii.com:1337","udp://tracker.coppersurfer.tk:6969","udp://tracker.leechers-paradise.org:6969","udp://zer0day.ch:1337"],"infoHash":"b913b36aa844a947214f94feb7801a8aaffca1da","infoHashBuffer":{"type":"Buffer","data":[185,19,179,106,168,68,169,71,33,79,148,254,183,128,26,138,175,252,161,218]},"name":"La Peste (2018) S01 E06 (Finale) - 720p x264 - SPA (ENG SUBS) [B","announce":["udp://exodus.desync.com:6969","udp://open.demonii.com:1337","udp://tracker.coppersurfer.tk:6969","udp://tracker.leechers-paradise.org:6969","udp://zer0day.ch:1337"],"urlList":[]}}